HIERARCHY
ROOT Hips
{
  OFFSET 265.287 66.7526 -254.649
  CHANNELS 6 Xposition Yposition Zposition Zrotation Xrotation Yrotation
  JOINT LeftUpLeg
  {
    OFFSET 8.64259 1.95398 -2.38835
    CHANNELS 3 Zrotation Xrotation Yrotation
    JOINT LeftLeg
    {
      OFFSET 43.7702 0 0
      CHANNELS 3 Zrotation Xrotation Yrotation
      JOINT LeftFoot
      {
        OFFSET 40.6238 0 0
        CHANNELS 3 Zrotation Xrotation Yrotation
        JOINT LeftToeBase
        {
          OFFSET 12.7242 0 0
          CHANNELS 3 Zrotation Xrotation Yrotation
          End Site
          {
            OFFSET 0 0 0
          }
        }
      }
    }
  }
  JOINT RightUpLeg
  {
    OFFSET -8.2249 1.95398 -2.59336
    CHANNELS 3 Zrotation Xrotation Yrotation
    JOINT RightLeg
    {
      OFFSET 43.5653 0 0
      CHANNELS 3 Zrotation Xrotation Yrotation
      JOINT RightFoot
      {
        OFFSET 40.6238 0 0
        CHANNELS 3 Zrotation Xrotation Yrotation
        JOINT RightToeBase
        {
          OFFSET 12.7242 0 0
          CHANNELS 3 Zrotation Xrotation Yrotation
          End Site
          {
            OFFSET 0 0 0
          }
        }
      }
    }
  }
  JOINT Spine
  {
    OFFSET 0.165834 0.87714 6.61349
    CHANNELS 3 Zrotation Xrotation Yrotation
    JOINT Spine1
    {
      OFFSET 7.38963 1.71661e-005 0
      CHANNELS 3 Zrotation Xrotation Yrotation
      JOINT Spine2
      {
        OFFSET 11.9445 1.14441e-005 0
        CHANNELS 3 Zrotation Xrotation Yrotation
        JOINT Spine3
        {
          OFFSET 14.7254 4.19617e-005 0
          CHANNELS 3 Zrotation Xrotation Yrotation
          JOINT Spine4
          {
            OFFSET 10.9679 0 0
            CHANNELS 3 Zrotation Xrotation Yrotation
            JOINT RightShoulder
            {
              OFFSET 2.46616 -1.6653 3.69651
              CHANNELS 3 Zrotation Xrotation Yrotation
              JOINT RightArm
              {
                OFFSET 13.0012 0 0
                CHANNELS 3 Zrotation Xrotation Yrotation
                JOINT RightForeArm
                {
                  OFFSET 28.7848 1.52588e-005 0
                  CHANNELS 3 Zrotation Xrotation Yrotation
                  JOINT RightHand
                  {
                    OFFSET 26.5688 1.52588e-005 0
                    CHANNELS 3 Zrotation Xrotation Yrotation
                    End Site
                    {
                      OFFSET 0 0 0
                    }
                  }
                }
              }
            }
            JOINT LeftShoulder
            {
              OFFSET 2.38034 -1.29275 -3.7523
              CHANNELS 3 Zrotation Xrotation Yrotation
              JOINT LeftArm
              {
                OFFSET 16.3182 6.10351e-005 0
                CHANNELS 3 Zrotation Xrotation Yrotation
                JOINT LeftForeArm
                {
                  OFFSET 27.0901 0 0
                  CHANNELS 3 Zrotation Xrotation Yrotation
                  JOINT LeftHand
                  {
                    OFFSET 24.5451 1.52588e-005 0
                    CHANNELS 3 Zrotation Xrotation Yrotation
                    End Site
                    {
                      OFFSET 0 0 0
                    }
                  }
                }
              }
            }
            JOINT Neck
            {
              OFFSET 5.0226 -0.0266342 0
              CHANNELS 3 Zrotation Xrotation Yrotation
              JOINT Head
              {
                OFFSET 6.69364 2.86102e-005 0
                CHANNELS 3 Zrotation Xrotation Yrotation
                End Site
                {
                  OFFSET 0 0 0
                }
              }
            }
          }
        }
      }
    }
  }
}
MOTION
Frames:	9
Frame Time:	0.0416667
17.3657 98.6959 -290.628 102.24 -84.1666 100.849 -175.246 -0.526861 87.5979 -6.93602 17.4967 1.86479 59.8601 2.03336 10.6835 33.4068 -1.07701 -5.04753 175.402 3.3312 88.6459 -16.0154 8.44028 -0.474001 60.0551 5.53428 8.53065 35.4871 -1.00218 0.569333 0.811898 6.77715 -90.1696 13.3243 1.52913 -0.532667 1.65407 1.50421 -0.599472 -20.8883 1.61851 -0.0483597 -0.875627 1.61851 -0.0483553 111.506 -44.5239 -66.603 37.7613 -3.15388 2.92248 -3.90724 -8.7266 -28.7608 -2.89783 -0.502661 18.4663 -87.3922 -53.0141 82.9013 -27.4707 13.8218 -13.6803 10.4458 32.1189 -17.6654 -0.921521 -0.038215 -0.248947 5.76921 -3.61347 1.78433 -9.58013 -3.98601 1.67038 
17.4621 98.6903 -290.709 103.751 -83.4818 102.224 -175.645 -0.675422 87.3456 -7.20202 17.889 2.12931 59.8377 2.06044 10.7522 33.1028 -0.934395 -5.49367 174.925 2.97539 88.284 -16.1319 9.44806 -0.157756 60.7865 5.27939 9.2048 34.1234 -0.833129 0.869101 0.673366 6.82904 -90.1467 13.2191 1.26565 -0.451868 1.54863 1.24455 -0.507148 -20.9914 1.34294 -0.0505245 -0.978795 1.34293 -0.0505346 110.785 -44.9292 -67.8712 37.4591 -1.83475 2.92127 -5.32342 -12.3073 -28.6224 -3.97114 -0.74359 19.0676 -86.9354 -52.564 83.4973 -28.0276 13.5909 -13.7366 10.38 31.6475 -17.419 -0.532574 -0.0398748 -1.18743 6.02901 -3.36165 1.6159 -9.84898 -3.71586 1.73828 
17.5197 98.6515 -290.805 106.346 -83.246 104.674 -176.14 -0.914594 87.0588 -7.62662 20.2234 2.47271 59.4741 2.09458 12.4283 33.9494 -1.36109 -3.67298 174.205 2.7391 87.776 -16.6606 10.4784 0.357754 62.1815 4.68724 10.532 32.0495 -0.576191 1.19919 0.552431 6.92487 -90.1652 13.0266 1.01736 -0.454935 1.35591 0.996352 -0.499276 -21.1824 1.10704 -0.128112 -1.16972 1.10704 -0.128115 109.774 -44.8767 -69.5293 37.5024 -1.79909 2.46879 -5.7138 -14.2492 -27.3663 -5.55355 -0.922295 15.4693 -86.2045 -53.0622 84.6394 -27.4867 13.8472 -14.3841 9.86927 31.1656 -16.9199 -0.170348 -0.0315405 -1.32425 6.26031 -2.68673 1.71651 -9.74623 -3.08979 2.05332 
17.4961 98.5818 -290.874 107.081 -83.3757 105.619 -176.367 -0.874996 87.168 -8.00948 21.5963 2.81845 59.4973 2.21306 13.2056 34.4389 -1.62026 -2.21546 174.009 3.00483 87.8221 -17.2483 10.4793 0.638118 62.6064 4.33514 11.117 31.7197 -0.483512 0.67511 0.436853 7.00477 -90.1967 12.8661 0.773199 -0.486383 1.19533 0.751045 -0.519949 -21.3414 0.883627 -0.231501 -1.32879 0.883627 -0.231512 108.789 -45.5094 -71.2482 37.0266 -2.12602 1.82567 -5.77165 -16.133 -25.8265 -8.43484 -1.13052 11.0193 -85.4345 -52.9127 85.7427 -27.7318 13.6268 -14.4646 10.1588 30.7351 -17.2135 -0.31927 -0.0404291 -1.5896 6.92885 -2.16718 2.00937 -9.72446 -2.63201 1.81739 
17.366 98.683 -290.852 106.317 -83.6661 104.829 -176.31 -0.716289 87.1838 -7.93019 20.5857 2.7581 59.5944 2.22023 12.6822 34.2283 -1.55202 -2.19114 173.986 4.26076 87.8782 -19.0907 7.86086 0.752776 61.783 4.52915 9.07166 39.0733 -1.48165 -0.249029 0.32923 7.08389 -90.1928 12.7072 0.561826 -0.451584 1.03627 0.541402 -0.475883 -21.4996 0.671564 -0.261858 -1.48695 0.671565 -0.261857 107.615 -46.163 -73.2535 36.5624 -2.05827 1.16701 -6.81359 -19.4927 -24.6718 -10.0604 -0.940005 5.92677 -84.4883 -52.5389 87.0846 -28.3739 13.4047 -14.934 10.5833 31.3497 -17.2698 0.155224 -0.02693 -1.48797 7.53846 -1.58315 0.805122 -9.55994 -1.90704 3.48416 
17.0795 98.7296 -290.677 104.998 -84.3123 103.873 -175.956 -0.465166 87.6968 -8.05283 20.4853 2.74934 59.7561 2.36117 12.9088 34.6847 -1.71777 -1.93474 174.271 4.95785 88.6131 -20.359 7.19658 0.720497 62.8289 3.75978 9.04676 42.6739 -2.00846 -0.455676 0.247278 7.14881 -90.2431 12.577 0.375437 -0.529303 0.906017 0.351779 -0.545329 -21.6291 0.517154 -0.391998 -1.6164 0.51715 -0.392012 106.231 -46.2668 -75.5223 36.8793 -1.88874 0.439416 -7.18095 -22.0036 -23.0186 -12.2549 -0.77485 2.20714 -83.8025 -52.3255 88.0706 -28.4387 13.3013 -14.9052 10.7013 30.4173 -17.6053 0.253793 -0.00393358 -0.5865 8.1674 -1.18023 -0.330488 -9.86689 -1.39916 5.50635 
16.722 98.6252 -290.168 100.916 -85.2666 100.004 -175.683 -0.163221 88.0654 -8.26325 19.742 2.68728 60.3329 2.78627 13.2808 34.8219 -1.73206 -2.46445 174.463 5.63282 89.0309 -21.1263 6.24483 0.763148 63.5241 3.16578 9.48838 41.8774 -1.89817 -2.5456 0.175614 7.19183 -90.2864 12.4904 0.212642 -0.596349 0.819282 0.186188 -0.605141 -21.7152 0.382039 -0.504873 -1.70252 0.382034 -0.504882 104.927 -46.4555 -77.6599 36.8388 -2.09419 0.0645315 -7.25483 -23.4304 -22.3463 -13.4832 -0.688474 0.766117 -82.8773 -52.1819 89.4245 -28.5679 12.5367 -14.5907 11.2463 29.4819 -18.2912 -0.539663 -0.0330958 -0.743478 8.59816 -0.3733 -0.748929 -10.2493 -0.593533 6.47363 
16.2054 98.4559 -289.141 102.28 -87.0083 101.288 -175.668 -0.549002 88.1696 -8.31908 18.7221 2.75272 60.4541 3.37304 14.9085 35.9292 -2.09714 -2.72444 174.419 5.46181 89.0055 -21.4756 5.99639 0.760242 64.2703 2.8048 10.3678 41.2788 -1.80182 -0.879707 0.145521 7.26698 -90.3282 12.3399 0.133418 -0.670274 0.668775 0.103784 -0.675502 -21.8653 0.328691 -0.599201 -1.85264 0.328689 -0.599196 103.448 -46.4314 -80.0729 36.5948 -2.3501 -0.684073 -6.94895 -24.2145 -21.5817 -13.3132 -0.708584 1.03077 -81.6678 -52.3882 91.2247 -28.3243 12.0119 -13.5565 11.698 27.6515 -19.5392 -0.768528 -0.0515382 -1.64064 7.37828 0.783964 -0.112562 -9.36713 0.444146 6.78848 
15.7737 97.7251 -287.992 116.788 -87.9205 115.724 -178.055 2.77295 87.8302 -17.0553 16.125 2.59765 60.8965 5.31686 16.6033 41.0965 -3.79997 0.688817 173.891 5.88189 88.638 -24.3386 5.06434 1.17631 65.6397 3.09527 10.5095 41.5448 -1.84296 0.665974 0.149791 7.46827 -90.4176 11.937 0.101088 -0.843804 0.265765 0.0638502 -0.847441 -22.2675 0.349994 -0.774428 -2.25484 0.350001 -0.774423 102.586 -45.8869 -81.4721 36.1038 -3.41707 -2.27171 -4.87773 -21.4877 -20.019 -12.6729 -0.760172 1.84139 -80.7557 -51.9683 92.5513 -29.0319 11.3262 -12.7214 12.3376 26.0329 -20.7291 -0.432407 -0.0492778 -1.934 7.70502 1.51067 -0.775708 -10.4727 1.12588 8.42157 
